<svg xmlns="http://www.w3.org/2000/svg" version="1.1" xmlns:xlink="http://www.w3.org/1999/xlink" xmlns:svgjs="http://svgjs.dev/svgjs" width="1000" height="267" viewBox="0 0 1000 267"><g transform="matrix(1,0,0,1,-0.606056969570659,-0.4613459465181222)"><svg viewBox="0 0 396 106" data-background-color="#ffffff" preserveAspectRatio="xMidYMid meet" height="267" width="1000" xmlns="http://www.w3.org/2000/svg" xmlns:xlink="http://www.w3.org/1999/xlink"><g id="tight-bounds" transform="matrix(1,0,0,1,0.23999855994998143,0.183156068655137)"><svg viewBox="0 0 395.52 105.6336878626897" height="105.6336878626897" width="395.52"><g><svg viewBox="0 0 582.6035981900791 155.59912681758368" height="105.6336878626897" width="395.52"><g><rect width="5.741859917793193" height="113.15276588398811" x="410.5510469052178" y="21.223180466797785" fill="#233565" opacity="1" stroke-width="0" stroke="transparent" fill-opacity="1" class="rect-o-0" data-fill-palette-color="primary" rx="1%" id="o-0" data-palette-color="#233565"></rect></g><g transform="matrix(1,0,0,1,0,21.504655008797748)"><svg viewBox="0 0 395.52 112.58981679998818" height="112.58981679998818" width="395.52"><g id="textblocktransform"><svg viewBox="0 0 395.52 112.58981679998818" height="112.58981679998818" width="395.52" id="textblock"><g><svg viewBox="0 0 395.52 63.670372698697804" height="63.670372698697804" width="395.52"><g transform="matrix(1,0,0,1,0,0)"><svg width="395.52" viewBox="2 -35.349998474121094 226.17999267578125 35.849998474121094" height="63.670372698697804" data-palette-color="#233565"><g class="wordmark-text-0" data-fill-palette-color="primary" id="text-0"><path d="M7.85 0L2.2 0Q2 0 2-0.25L2-0.25 2.1-34.6Q2.1-34.8 2.3-34.8L2.3-34.8 8.4-34.8Q8.6-34.8 8.75-34.6L8.75-34.6 13.3-28 17.85-34.6Q18-34.8 18.2-34.8L18.2-34.8 24.35-34.8Q24.55-34.8 24.55-34.6L24.55-34.6 24.65-0.25Q24.65 0 24.45 0L24.45 0 18.8 0Q18.6 0 18.6-0.25L18.6-0.25 18.55-25.75 13.3-18.15 8.1-25.75 8.05-0.25Q8.05 0 7.85 0L7.85 0ZM27.15-0.25L27.15-0.25 33.35-34.6Q33.4-34.8 33.6-34.8L33.6-34.8 40.85-34.8Q41.05-34.8 41.1-34.6L41.1-34.6 47.05-0.25Q47.1 0 46.85 0L46.85 0 41.3 0Q41.1 0 41.05-0.25L41.05-0.25 40.5-3.9 33.7-3.9 33.15-0.25Q33.1 0 32.9 0L32.9 0 27.35 0Q27.15 0 27.15-0.25ZM36.95-23.3L34.7-9.25 39.5-9.25 37.45-23.3 37.15-25.15 36.95-23.3ZM60.85 0L55.2 0Q55 0 55-0.25L55-0.25 55-28.75 48.5-28.75Q48.25-28.75 48.25-29L48.25-29 48.3-34.6Q48.3-34.8 48.5-34.8L48.5-34.8 67.5-34.8Q67.75-34.8 67.75-34.6L67.75-34.6 67.75-29Q67.75-28.75 67.55-28.75L67.55-28.75 61-28.75 61.05-0.25Q61.05 0 60.85 0L60.85 0ZM76.04 0L70.39 0Q70.19 0 70.19-0.25L70.19-0.25 70.24-34.6Q70.24-34.8 70.49-34.8L70.49-34.8 76.04-34.8Q76.29-34.8 76.29-34.6L76.29-34.6 76.24-21 83.74-21 83.74-34.6Q83.74-34.8 83.94-34.8L83.94-34.8 89.49-34.8Q89.74-34.8 89.74-34.6L89.74-34.6 89.84-0.25Q89.84 0 89.59 0L89.59 0 83.99 0Q83.74 0 83.74-0.25L83.74-0.25 83.74-14.95 76.24-14.95 76.24-0.25Q76.24 0 76.04 0L76.04 0ZM99.79 0L94.14 0Q93.94 0 93.94-0.25L93.94-0.25 94.04-34.6Q94.04-34.8 94.24-34.8L94.24-34.8 100.34-34.8Q100.54-34.8 100.69-34.6L100.69-34.6 105.24-28 109.79-34.6Q109.94-34.8 110.14-34.8L110.14-34.8 116.29-34.8Q116.49-34.8 116.49-34.6L116.49-34.6 116.59-0.25Q116.59 0 116.39 0L116.39 0 110.74 0Q110.54 0 110.54-0.25L110.54-0.25 110.49-25.75 105.24-18.15 100.04-25.75 99.99-0.25Q99.99 0 99.79 0L99.79 0ZM137.14 0L120.99 0Q120.79 0 120.79-0.25L120.79-0.25 120.84-34.6Q120.84-34.8 121.04-34.8L121.04-34.8 137.09-34.8Q137.29-34.8 137.29-34.55L137.29-34.55 137.29-28.95Q137.29-28.75 137.09-28.75L137.09-28.75 126.84-28.75 126.84-20.95 137.09-20.95Q137.29-20.95 137.29-20.75L137.29-20.75 137.34-15.1Q137.34-14.9 137.14-14.9L137.14-14.9 126.84-14.9 126.84-6.15 137.14-6.15Q137.34-6.15 137.34-5.9L137.34-5.9 137.34-0.2Q137.34 0 137.14 0L137.14 0ZM147.24 0L142.24 0Q141.84 0 141.84-0.35L141.84-0.35 141.79-34.4Q141.79-34.8 142.19-34.8L142.19-34.8 146.69-34.8 155.14-15.1 154.89-34.4Q154.89-34.8 155.34-34.8L155.34-34.8 160.29-34.8Q160.59-34.8 160.59-34.4L160.59-34.4 160.64-0.3Q160.64 0 160.39 0L160.39 0 155.99 0 147.34-18.4 147.69-0.4Q147.69 0 147.24 0L147.24 0ZM175.63 0L169.98 0Q169.78 0 169.78-0.25L169.78-0.25 169.78-28.75 163.28-28.75Q163.03-28.75 163.03-29L163.03-29 163.08-34.6Q163.08-34.8 163.28-34.8L163.28-34.8 182.28-34.8Q182.53-34.8 182.53-34.6L182.53-34.6 182.53-29Q182.53-28.75 182.33-28.75L182.33-28.75 175.78-28.75 175.83-0.25Q175.83 0 175.63 0L175.63 0ZM194.23 0.5L194.23 0.5Q191.53 0.5 189.31-0.88 187.08-2.25 185.73-4.53 184.38-6.8 184.38-9.55L184.38-9.55 184.43-25.4Q184.43-28.15 185.76-30.4 187.08-32.65 189.33-34 191.58-35.35 194.23-35.35L194.23-35.35Q196.93-35.35 199.13-34 201.33-32.65 202.66-30.4 203.98-28.15 203.98-25.4L203.98-25.4 204.03-9.55Q204.03-6.8 202.71-4.53 201.38-2.25 199.16-0.88 196.93 0.5 194.23 0.5ZM194.23-5.55L194.23-5.55Q195.73-5.55 196.86-6.78 197.98-8 197.98-9.55L197.98-9.55 197.93-25.4Q197.93-27.05 196.88-28.2 195.83-29.35 194.23-29.35L194.23-29.35Q192.68-29.35 191.58-28.23 190.48-27.1 190.48-25.4L190.48-25.4 190.48-9.55Q190.48-7.9 191.58-6.73 192.68-5.55 194.23-5.55ZM213.68 0L208.03 0Q207.83 0 207.83-0.25L207.83-0.25 207.93-34.6Q207.93-34.8 208.13-34.8L208.13-34.8 218.23-34.8Q220.93-34.8 223.2-33.48 225.48-32.15 226.83-29.93 228.18-27.7 228.18-24.9L228.18-24.9Q228.18-23.05 227.63-21.58 227.08-20.1 226.33-19.07 225.58-18.05 224.98-17.55L224.98-17.55Q227.68-14.55 227.68-10.5L227.68-10.5 227.73-0.25Q227.73 0 227.48 0L227.48 0 221.83 0Q221.63 0 221.63-0.15L221.63-0.15 221.63-10.5Q221.63-12.3 220.35-13.63 219.08-14.95 217.23-14.95L217.23-14.95 213.93-14.95 213.88-0.25Q213.88 0 213.68 0L213.68 0ZM213.93-28.8L213.93-20.95 218.23-20.95Q219.78-20.95 220.98-22.1 222.18-23.25 222.18-24.9L222.18-24.9Q222.18-26.5 221-27.65 219.83-28.8 218.23-28.8L218.23-28.8 213.93-28.8Z" fill="#233565" data-fill-palette-color="primary"></path></g></svg></g></svg></g><g transform="matrix(1,0,0,1,163.310208,78.70141960391558)"><svg viewBox="0 0 232.209792 33.888397196072596" height="33.888397196072596" width="232.209792"><g transform="matrix(1,0,0,1,0,0)"><svg width="232.209792" viewBox="3.5 -38.150001525878906 336.07000732421875 49.05000305175781" height="33.888397196072596" data-palette-color="#233565"><path d="M3.5-36.45L10.85-36.45 19.45-13.35Q19.95-12.05 20.35-10.78 20.75-9.5 21.15-7.95L21.15-7.95Q21.55-9.5 21.9-10.73 22.25-11.95 22.75-13.2L22.75-13.2 31.3-36.45 37.9-36.45 37.9 0 32.85 0 32.85-26.05Q32.85-26.95 32.93-27.8 33-28.65 33.05-29.65L33.05-29.65Q32.75-28.85 32.4-28 32.05-27.15 31.75-26.25L31.75-26.25 22.15 0.05 19.15 0.05 9.4-26.45Q9.1-27.25 8.78-28.1 8.45-28.95 8.2-29.65L8.2-29.65Q8.3-28.75 8.33-27.93 8.35-27.1 8.35-26.25L8.35-26.25 8.35 0 4.2 0 4.2-33.2 3.5-36.45ZM54.55-25.45L54.55-25.45Q58.5-25.45 60.55-23.33 62.6-21.2 62.6-17.25L62.6-17.25 62.6-5.15Q62.6-4 63-3.6 63.4-3.2 64-3.2L64-3.2Q64.45-3.2 64.95-3.33 65.45-3.45 65.9-3.65L65.9-3.65 66.8-0.8Q65.95-0.3 64.7 0.08 63.45 0.45 62.15 0.45L62.15 0.45Q60.75 0.45 59.7-0.28 58.65-1 58.35-2.95L58.35-2.95Q56.9-1.3 54.97-0.38 53.05 0.55 50.85 0.55L50.85 0.55Q47.9 0.55 45.92-1.18 43.95-2.9 43.95-5.95L43.95-5.95Q43.95-8.8 45.3-10.5 46.65-12.2 48.82-13.08 51-13.95 53.45-14.25 55.9-14.55 58.05-14.55L58.05-14.55 58.05-17.35Q58.05-19.4 57.2-20.7 56.35-22 54-22L54-22Q52.15-22 50.42-21.23 48.7-20.45 47.05-19.05L47.05-19.05 44.9-22.25Q47-23.85 49.47-24.65 51.95-25.45 54.55-25.45ZM58.05-9.6L58.05-11.1Q56.75-11.1 55.15-11 53.55-10.9 52.05-10.43 50.55-9.95 49.57-8.95 48.6-7.95 48.6-6.2L48.6-6.2Q48.6-4.65 49.7-3.93 50.8-3.2 52.35-3.2L52.35-3.2Q54.05-3.2 55.32-4.15 56.6-5.1 57.32-6.58 58.05-8.05 58.05-9.6L58.05-9.6ZM69.85-38.15L75.1-38.15 75.1-14.6 84.05-24.85 88.8-24.85 79.55-14.4 90.15 0 84.85 0 75.1-13.35 75.1 0 70.5 0 70.5-35.3 69.85-38.15ZM102.24-25.45L102.24-25.45Q105.34-25.45 107.42-24.18 109.49-22.9 110.54-20.68 111.59-18.45 111.59-15.6L111.59-15.6Q111.59-14.9 111.52-14.15 111.44-13.4 111.29-12.55L111.29-12.55 95.59-12.55Q95.59-8 97.67-5.5 99.74-3 103.14-3L103.14-3Q104.59-3 106.19-3.45 107.79-3.9 109.49-4.85L109.49-4.85 111.04-2.15Q109.34-0.75 107.04-0.05 104.74 0.65 102.54 0.65L102.54 0.65Q98.64 0.65 96.02-1.15 93.39-2.95 92.09-5.9 90.79-8.85 90.79-12.15L90.79-12.15Q90.79-14.7 91.52-17.05 92.24-19.4 93.69-21.33 95.14-23.25 97.27-24.35 99.39-25.45 102.24-25.45ZM101.89-22.1L101.89-22.1Q100.19-22.1 98.92-21.18 97.64-20.25 96.89-18.8 96.14-17.35 95.89-15.85L95.89-15.85 106.84-15.85Q106.94-17.8 106.34-19.2 105.74-20.6 104.62-21.35 103.49-22.1 101.89-22.1ZM127.34-24.7L132.29-25.25Q132.64-24.45 132.86-23.58 133.09-22.7 133.19-21.85L133.19-21.85Q134.64-23.2 136.54-24.33 138.44-25.45 140.54-25.45L140.54-25.45Q142.84-25.45 144.54-24.5 146.24-23.55 147.24-21.4L147.24-21.4Q148.79-22.95 150.81-24.2 152.84-25.45 155.09-25.45L155.09-25.45Q157.84-25.45 159.46-24.3 161.09-23.15 161.81-21.2 162.54-19.25 162.54-16.65L162.54-16.65 162.54 0 157.99 0 157.99-15.55Q157.99-17 157.76-18.38 157.54-19.75 156.69-20.65 155.84-21.55 154.04-21.55L154.04-21.55Q152.39-21.55 150.74-20.48 149.09-19.4 147.99-18.3L147.99-18.3 147.99 0 143.44 0 143.44-15.55Q143.44-17 143.21-18.38 142.99-19.75 142.16-20.65 141.34-21.55 139.49-21.55L139.49-21.55Q138.49-21.55 137.36-21.05 136.24-20.55 135.24-19.8 134.24-19.05 133.49-18.35L133.49-18.35 133.49 0 128.94 0 128.94-18Q128.94-19 128.76-20.23 128.59-21.45 128.24-22.65 127.89-23.85 127.34-24.7L127.34-24.7ZM179.09-25.45L179.09-25.45Q183.04-25.45 185.09-23.33 187.14-21.2 187.14-17.25L187.14-17.25 187.14-5.15Q187.14-4 187.54-3.6 187.94-3.2 188.54-3.2L188.54-3.2Q188.99-3.2 189.49-3.33 189.99-3.45 190.44-3.65L190.44-3.65 191.34-0.8Q190.49-0.3 189.24 0.08 187.99 0.45 186.69 0.45L186.69 0.45Q185.29 0.45 184.24-0.28 183.19-1 182.89-2.95L182.89-2.95Q181.44-1.3 179.51-0.38 177.59 0.55 175.39 0.55L175.39 0.55Q172.44 0.55 170.46-1.18 168.49-2.9 168.49-5.95L168.49-5.95Q168.49-8.8 169.84-10.5 171.19-12.2 173.36-13.08 175.54-13.95 177.99-14.25 180.44-14.55 182.59-14.55L182.59-14.55 182.59-17.35Q182.59-19.4 181.74-20.7 180.89-22 178.54-22L178.54-22Q176.69-22 174.96-21.23 173.24-20.45 171.59-19.05L171.59-19.05 169.44-22.25Q171.54-23.85 174.01-24.65 176.49-25.45 179.09-25.45ZM182.59-9.6L182.59-11.1Q181.29-11.1 179.69-11 178.09-10.9 176.59-10.43 175.09-9.95 174.11-8.95 173.14-7.95 173.14-6.2L173.14-6.2Q173.14-4.65 174.24-3.93 175.34-3.2 176.89-3.2L176.89-3.2Q178.59-3.2 179.86-4.15 181.14-5.1 181.86-6.58 182.59-8.05 182.59-9.6L182.59-9.6ZM197.98-32L201.28-32Q200.93-30.25 200.66-28.43 200.38-26.6 200.28-24.85L200.28-24.85 206.68-24.85 205.83-21.55 200.28-21.55 200.28-6.1Q200.28-5.2 200.48-4.48 200.68-3.75 201.23-3.33 201.78-2.9 202.83-2.9L202.83-2.9Q203.63-2.9 204.43-3.05 205.23-3.2 205.98-3.4L205.98-3.4 206.68-0.4Q205.43-0.05 204.21 0.25 202.98 0.55 201.53 0.55L201.53 0.55Q198.33 0.55 197.03-1.13 195.73-2.8 195.73-5.9L195.73-5.9 195.73-21.55 191.93-21.55 191.93-24.2Q193.93-24.25 195.13-25.53 196.33-26.8 196.98-28.6 197.63-30.4 197.98-32L197.98-32ZM210.83-38.15L215.93-38.15 215.93-22.05Q217.53-23.45 219.38-24.48 221.23-25.5 223.43-25.5L223.43-25.5Q226.18-25.5 227.83-24.38 229.48-23.25 230.21-21.28 230.93-19.3 230.93-16.7L230.93-16.7 230.93 0 226.43 0 226.43-15.5Q226.43-16.95 226.21-18.35 225.98-19.75 225.18-20.68 224.38-21.6 222.48-21.6L222.48-21.6Q221.33-21.6 220.16-21.1 218.98-20.6 217.91-19.88 216.83-19.15 215.93-18.4L215.93-18.4 215.93 0 211.43 0 211.43-35.3 210.83-38.15ZM259.78-25.45L259.78-25.45Q262.88-25.45 264.95-24.18 267.03-22.9 268.08-20.68 269.13-18.45 269.13-15.6L269.13-15.6Q269.13-14.9 269.05-14.15 268.98-13.4 268.83-12.55L268.83-12.55 253.13-12.55Q253.13-8 255.2-5.5 257.28-3 260.68-3L260.68-3Q262.13-3 263.73-3.45 265.33-3.9 267.03-4.85L267.03-4.85 268.58-2.15Q266.88-0.75 264.58-0.05 262.28 0.65 260.08 0.65L260.08 0.65Q256.18 0.65 253.55-1.15 250.93-2.95 249.63-5.9 248.33-8.85 248.33-12.15L248.33-12.15Q248.33-14.7 249.05-17.05 249.78-19.4 251.23-21.33 252.68-23.25 254.8-24.35 256.93-25.45 259.78-25.45ZM259.43-22.1L259.43-22.1Q257.73-22.1 256.45-21.18 255.18-20.25 254.43-18.8 253.68-17.35 253.43-15.85L253.43-15.85 264.38-15.85Q264.48-17.8 263.88-19.2 263.28-20.6 262.15-21.35 261.03-22.1 259.43-22.1ZM283.67-25.45L283.67-25.45Q287.62-25.45 289.67-23.33 291.72-21.2 291.72-17.25L291.72-17.25 291.72-5.15Q291.72-4 292.12-3.6 292.52-3.2 293.12-3.2L293.12-3.2Q293.57-3.2 294.07-3.33 294.57-3.45 295.02-3.65L295.02-3.65 295.92-0.8Q295.07-0.3 293.82 0.08 292.57 0.45 291.27 0.45L291.27 0.45Q289.87 0.45 288.82-0.28 287.77-1 287.47-2.95L287.47-2.95Q286.02-1.3 284.1-0.38 282.17 0.55 279.97 0.55L279.97 0.55Q277.02 0.55 275.05-1.18 273.07-2.9 273.07-5.95L273.07-5.95Q273.07-8.8 274.42-10.5 275.77-12.2 277.95-13.08 280.12-13.95 282.57-14.25 285.02-14.55 287.17-14.55L287.17-14.55 287.17-17.35Q287.17-19.4 286.32-20.7 285.47-22 283.12-22L283.12-22Q281.27-22 279.55-21.23 277.82-20.45 276.17-19.05L276.17-19.05 274.02-22.25Q276.12-23.85 278.6-24.65 281.07-25.45 283.67-25.45ZM287.17-9.6L287.17-11.1Q285.87-11.1 284.27-11 282.67-10.9 281.17-10.43 279.67-9.95 278.7-8.95 277.72-7.95 277.72-6.2L277.72-6.2Q277.72-4.65 278.82-3.93 279.92-3.2 281.47-3.2L281.47-3.2Q283.17-3.2 284.45-4.15 285.72-5.1 286.45-6.58 287.17-8.05 287.17-9.6L287.17-9.6ZM307.87-25.45L307.87-25.45Q309.57-25.45 311.32-25.05 313.07-24.65 314.52-23.75L314.52-23.75 312.92-20.35Q311.87-21.2 310.52-21.65 309.17-22.1 307.87-22.1L307.87-22.1Q306.12-22.1 304.82-21.33 303.52-20.55 303.52-18.9L303.52-18.9Q303.52-17.15 304.67-16.3 305.82-15.45 307.47-14.7L307.47-14.7Q308.72-14.1 310-13.5 311.27-12.9 312.37-12.05 313.47-11.2 314.15-9.95 314.82-8.7 314.82-6.85L314.82-6.85Q314.82-4.3 313.55-2.63 312.27-0.95 310.25-0.15 308.22 0.65 305.92 0.65L305.92 0.65Q303.92 0.65 301.85 0.1 299.77-0.45 298.07-1.45L298.07-1.45 299.92-4.7Q301.12-3.85 302.6-3.28 304.07-2.7 305.52-2.7L305.52-2.7Q307.32-2.7 308.7-3.58 310.07-4.45 310.07-6.25L310.07-6.25Q310.07-7.45 309.32-8.25 308.57-9.05 307.42-9.68 306.27-10.3 305.02-10.85L305.02-10.85Q303.52-11.55 302.07-12.4 300.62-13.25 299.7-14.6 298.77-15.95 298.77-18.1L298.77-18.1Q298.77-20.55 300.1-22.18 301.42-23.8 303.5-24.63 305.57-25.45 307.87-25.45ZM317.67-24.85L322.57-24.85Q323.72-21.7 324.82-18.53 325.92-15.35 327.02-12.05L327.02-12.05Q327.52-10.5 327.99-8.93 328.47-7.35 328.97-5.85L328.97-5.85Q329.42-7.4 329.92-8.95 330.42-10.5 330.87-12.05L330.87-12.05Q331.97-15.35 333.09-18.53 334.22-21.7 335.32-24.85L335.32-24.85 339.57-24.85 330.77 0.1Q330.17 1.7 329.29 3.6 328.42 5.5 327.24 7.15 326.07 8.8 324.49 9.85 322.92 10.9 320.87 10.9L320.87 10.9 319.02 10.9 319.02 7.35Q319.17 7.35 319.34 7.38 319.52 7.4 319.72 7.4L319.72 7.4Q321.77 7.4 323.12 6.18 324.47 4.95 325.32 3.2 326.17 1.45 326.77-0.15L326.77-0.15 317.67-24.85Z" opacity="1" transform="matrix(1,0,0,1,0,0)" fill="#233565" class="slogan-text-1" data-fill-palette-color="secondary" id="text-1"></path></svg></g></svg></g></svg></g></svg></g><g transform="matrix(1,0,0,1,431.3239537282288,0)"><svg viewBox="0 0 151.2796444618504 155.59912681758368" height="155.59912681758368" width="151.2796444618504"><g><svg xmlns="http://www.w3.org/2000/svg" xmlns:xlink="http://www.w3.org/1999/xlink" version="1.1" x="0" y="0" viewBox="15.985998153686523 16 68.01399993896484 69.95600128173828" enable-background="new 0 0 100 100" xml:space="preserve" height="155.59912681758368" width="151.2796444618504" class="icon-icon-0" data-fill-palette-color="accent" id="icon-0"><path d="M40.987 25.852v5.295h-9.853V41h-5.298v-9.853h-9.85v-5.295h9.85V16h5.298v9.852H40.987z" fill="#8bd8bc" data-fill-palette-color="accent"></path><path d="M62.5 25.512h18v6.68h-18V25.512z" fill="#8bd8bc" data-fill-palette-color="accent"></path><path d="M24.497 72.167l-8.404-8.457 4.018-4.018 8.402 8.457 8.459-8.457 4.016 4.018-8.509 8.457 8.509 8.457-4.016 4.018-8.459-8.51-8.508 8.51-4.018-4.018L24.497 72.167z" fill="#8bd8bc" data-fill-palette-color="accent"></path><path d="M84 68.877v5.295H59v-5.295H84zM68.579 58.258c0.842-0.808 1.823-1.213 2.945-1.213 0.562 0 1.09 0.107 1.585 0.322 0.495 0.216 0.933 0.512 1.311 0.891 0.379 0.381 0.685 0.826 0.917 1.337 0.23 0.512 0.347 1.063 0.347 1.658 0 0.528-0.117 1.04-0.347 1.535-0.231 0.496-0.53 0.94-0.892 1.335-0.363 0.397-0.792 0.711-1.287 0.94-0.494 0.232-1.023 0.347-1.583 0.347-0.594 0-1.148-0.107-1.658-0.32-0.514-0.215-0.959-0.512-1.337-0.892-0.379-0.379-0.685-0.824-0.917-1.336-0.23-0.511-0.347-1.047-0.347-1.609C67.315 60.064 67.736 59.067 68.579 58.258zM67.662 80.164c0.231-0.496 0.538-0.933 0.917-1.311 0.378-0.379 0.824-0.677 1.337-0.893 0.51-0.213 1.047-0.32 1.607-0.32 0.562 0 1.09 0.107 1.585 0.32 0.495 0.216 0.933 0.514 1.311 0.893 0.379 0.378 0.685 0.815 0.917 1.311 0.23 0.496 0.347 1.04 0.347 1.634 0 0.496-0.117 0.991-0.347 1.484-0.231 0.496-0.53 0.941-0.892 1.338-0.363 0.396-0.792 0.717-1.287 0.965-0.494 0.248-1.023 0.371-1.583 0.371-0.594 0-1.148-0.115-1.658-0.347-0.514-0.229-0.959-0.536-1.337-0.915-0.379-0.38-0.685-0.826-0.917-1.337-0.23-0.512-0.347-1.031-0.347-1.559C67.315 81.203 67.432 80.659 67.662 80.164z" fill="#8bd8bc" data-fill-palette-color="accent"></path></svg></g></svg></g></svg></g><defs></defs></svg><rect width="395.52" height="105.6336878626897" fill="none" stroke="none" visibility="hidden"></rect></g></svg></g></svg>