<svg width="700" height="187" viewBox="0 0 700 187" fill="none" xmlns="http://www.w3.org/2000/svg">
<g clip-path="url(#clip0_1_72)">
<g clip-path="url(#clip1_1_72)">
<g clip-path="url(#clip2_1_72)">
<path d="M499.616 32.7009C499.616 28.8493 498.077 25.7271 496.179 25.7271C494.281 25.7271 492.743 28.8493 492.743 32.7009V154.198C492.743 158.05 494.281 161.172 496.179 161.172C498.077 161.172 499.616 158.05 499.616 154.198V32.7009Z" fill="white"/>
<g clip-path="url(#clip3_1_72)">
<g clip-path="url(#clip4_1_72)">
<g clip-path="url(#clip5_1_72)">
<g clip-path="url(#clip6_1_72)">
<path d="M13.5534 100.645H1.72675C1.44765 100.645 1.30811 100.471 1.30811 100.122L1.51743 28.2203C1.51743 27.9412 1.65697 27.8017 1.93607 27.8017H14.7047C14.9837 27.8017 15.228 27.9412 15.4373 28.2203L24.9614 42.0355L34.4855 28.2203C34.6948 27.9412 34.939 27.8017 35.2181 27.8017H48.0914C48.3705 27.8017 48.51 27.9412 48.51 28.2203L48.7193 100.122C48.7193 100.471 48.5798 100.645 48.3007 100.645H36.474C36.195 100.645 36.0554 100.471 36.0554 100.122L35.9507 46.7452L24.9614 62.6536L14.0767 46.7452L13.972 100.122C13.972 100.471 13.8325 100.645 13.5534 100.645ZM53.9524 100.122L66.9303 28.2203C67 27.9412 67.1745 27.8017 67.4536 27.8017H82.6293C82.9084 27.8017 83.0829 27.9412 83.1526 28.2203L95.6073 100.122C95.677 100.471 95.5375 100.645 95.1886 100.645H83.5713C83.2922 100.645 83.1178 100.471 83.048 100.122L81.8967 92.4819H67.6629L66.5116 100.122C66.4419 100.471 66.2674 100.645 65.9883 100.645H54.371C54.0919 100.645 53.9524 100.471 53.9524 100.122ZM74.4658 51.8736L69.7561 81.2832H79.8035L75.5124 51.8736L74.8845 48.0011L74.4658 51.8736ZM124.494 100.645H112.667C112.388 100.645 112.248 100.471 112.248 100.122V40.4656H98.6424C98.2935 40.4656 98.1191 40.2911 98.1191 39.9423L98.2238 28.2203C98.2238 27.9412 98.3633 27.8017 98.6424 27.8017H138.413C138.762 27.8017 138.937 27.9412 138.937 28.2203V39.9423C138.937 40.2911 138.797 40.4656 138.518 40.4656H124.808L124.912 100.122C124.912 100.471 124.773 100.645 124.494 100.645ZM156.289 100.645H144.463C144.184 100.645 144.044 100.471 144.044 100.122L144.149 28.2203C144.149 27.9412 144.323 27.8017 144.672 27.8017H156.289C156.638 27.8017 156.813 27.9412 156.813 28.2203L156.708 56.688H172.407V28.2203C172.407 27.9412 172.547 27.8017 172.826 27.8017H184.443C184.792 27.8017 184.966 27.9412 184.966 28.2203L185.176 100.122C185.176 100.471 185.001 100.645 184.652 100.645H172.93C172.582 100.645 172.407 100.471 172.407 100.122V69.3519H156.708V100.122C156.708 100.471 156.569 100.645 156.289 100.645ZM206.003 100.645H194.177C193.897 100.645 193.758 100.471 193.758 100.122L193.967 28.2203C193.967 27.9412 194.107 27.8017 194.386 27.8017H207.154C207.434 27.8017 207.678 27.9412 207.887 28.2203L217.411 42.0355L226.935 28.2203C227.145 27.9412 227.389 27.8017 227.668 27.8017H240.541C240.82 27.8017 240.96 27.9412 240.96 28.2203L241.169 100.122C241.169 100.471 241.03 100.645 240.751 100.645H228.924C228.645 100.645 228.505 100.471 228.505 100.122L228.401 46.7452L217.411 62.6536L206.527 46.7452L206.422 100.122C206.422 100.471 206.282 100.645 206.003 100.645ZM284.185 100.645H250.379C250.1 100.645 249.961 100.471 249.961 100.122L250.065 28.2203C250.065 27.9412 250.205 27.8017 250.484 27.8017H284.08C284.359 27.8017 284.499 27.9761 284.499 28.325V40.0469C284.499 40.326 284.359 40.4656 284.08 40.4656H262.625V56.7926H284.08C284.359 56.7926 284.499 56.9322 284.499 57.2113L284.603 69.0379C284.603 69.317 284.464 69.4565 284.185 69.4565H262.625V87.7721H284.185C284.464 87.7721 284.603 87.9466 284.603 88.2954V100.227C284.603 100.506 284.464 100.645 284.185 100.645ZM305.326 100.645H294.86C294.302 100.645 294.023 100.401 294.023 99.9128L293.918 28.6389C293.918 28.0807 294.197 27.8017 294.755 27.8017H304.175L321.862 69.0379L321.339 28.6389C321.339 28.0807 321.653 27.8017 322.281 27.8017H332.642C333.061 27.8017 333.27 28.0807 333.27 28.6389L333.375 100.017C333.375 100.436 333.201 100.645 332.852 100.645H323.642L305.535 62.1303L306.268 99.8081C306.268 100.366 305.954 100.645 305.326 100.645ZM364.752 100.645H352.926C352.647 100.645 352.507 100.471 352.507 100.122V40.4656H338.901C338.552 40.4656 338.378 40.2911 338.378 39.9423L338.483 28.2203C338.483 27.9412 338.622 27.8017 338.901 27.8017H378.672C379.021 27.8017 379.195 27.9412 379.195 28.2203V39.9423C379.195 40.2911 379.056 40.4656 378.777 40.4656H365.066L365.171 100.122C365.171 100.471 365.031 100.645 364.752 100.645ZM403.686 101.692C399.918 101.692 396.485 100.729 393.387 98.8034C390.276 96.8916 387.778 94.3448 385.894 91.1631C384.01 87.9954 383.068 84.4928 383.068 80.6552L383.173 47.4778C383.173 43.6403 384.101 40.1516 385.957 37.0118C387.799 33.872 390.289 31.3601 393.429 29.4762C396.569 27.5923 399.988 26.6504 403.686 26.6504C407.454 26.6504 410.873 27.5923 413.943 29.4762C417.013 31.3601 419.476 33.872 421.332 37.0118C423.174 40.1516 424.095 43.6403 424.095 47.4778L424.2 80.6552C424.2 84.4928 423.279 87.9954 421.436 91.1631C419.581 94.3448 417.104 96.8916 414.006 98.8034C410.894 100.729 407.454 101.692 403.686 101.692ZM403.686 89.0281C405.779 89.0281 407.614 88.1698 409.191 86.4534C410.754 84.7509 411.536 82.8182 411.536 80.6552L411.431 47.4778C411.431 45.1753 410.698 43.2216 409.233 41.6168C407.768 40.012 405.919 39.2097 403.686 39.2097C401.523 39.2097 399.674 39.9911 398.139 41.554C396.604 43.1309 395.836 45.1055 395.836 47.4778V80.6552C395.836 82.9578 396.604 84.9254 398.139 86.5581C399.674 88.2047 401.523 89.0281 403.686 89.0281ZM444.399 100.645H432.572C432.293 100.645 432.154 100.471 432.154 100.122L432.363 28.2203C432.363 27.9412 432.503 27.8017 432.782 27.8017H453.923C457.691 27.8017 461.159 28.7227 464.326 30.5647C467.508 32.4207 470.041 34.8976 471.925 37.9956C473.809 41.1075 474.751 44.6171 474.751 48.5244C474.751 51.1061 474.367 53.4226 473.599 55.4739C472.832 57.5392 471.925 59.2905 470.878 60.7279C469.832 62.1512 468.89 63.2118 468.052 63.9095C471.82 68.096 473.704 73.015 473.704 78.6667L473.809 100.122C473.809 100.471 473.634 100.645 473.285 100.645H461.459C461.18 100.645 461.04 100.541 461.04 100.331V78.6667C461.04 76.1548 460.147 73.9709 458.361 72.1149C456.588 70.2729 454.412 69.3519 451.83 69.3519H444.922L444.818 100.122C444.818 100.471 444.678 100.645 444.399 100.645ZM444.922 40.3609V56.7926H453.923C456.086 56.7926 458.005 55.9902 459.679 54.3854C461.354 52.7806 462.191 50.827 462.191 48.5244C462.191 46.2917 461.368 44.3729 459.721 42.7681C458.089 41.1633 456.156 40.3609 453.923 40.3609H444.922Z" fill="white"/>
</g>
</g>
<g clip-path="url(#clip7_1_72)">
<g clip-path="url(#clip8_1_72)">
<path d="M196.805 121.676H202.883L209.996 140.78C210.271 141.497 210.52 142.206 210.74 142.906C210.961 143.611 211.181 144.392 211.402 145.246C211.622 144.392 211.829 143.625 212.022 142.947C212.215 142.274 212.449 141.594 212.725 140.904L219.796 121.676H225.254V151.821H221.078V130.277C221.078 129.781 221.1 129.299 221.144 128.83C221.182 128.361 221.216 127.851 221.243 127.3C221.078 127.741 220.898 128.196 220.706 128.665C220.513 129.133 220.333 129.616 220.168 130.112L212.229 151.862H209.748L201.684 129.947C201.519 129.505 201.348 129.051 201.172 128.582C200.99 128.113 200.83 127.686 200.692 127.3C200.747 127.796 200.783 128.27 200.799 128.723C200.81 129.18 200.816 129.643 200.816 130.112V151.821H197.384V124.364L196.805 121.676ZM239.024 130.774C241.202 130.774 242.856 131.358 243.986 132.527C245.116 133.701 245.681 135.377 245.681 137.555V147.562C245.681 148.196 245.791 148.623 246.012 148.844C246.233 149.064 246.508 149.175 246.839 149.175C247.087 149.175 247.349 149.139 247.625 149.067C247.9 149.001 248.162 148.913 248.41 148.802L249.155 151.159C248.686 151.435 248.107 151.678 247.418 151.887C246.729 152.091 246.026 152.193 245.309 152.193C244.537 152.193 243.862 151.992 243.283 151.589C242.704 151.192 242.332 150.456 242.166 149.381C241.367 150.291 240.435 150.999 239.371 151.507C238.313 152.019 237.177 152.276 235.964 152.276C234.337 152.276 232.978 151.799 231.887 150.845C230.801 149.897 230.257 148.582 230.257 146.9C230.257 145.329 230.63 144.075 231.374 143.137C232.118 142.2 233.089 141.489 234.285 141.004C235.487 140.524 236.763 140.201 238.114 140.036C239.465 139.871 240.733 139.788 241.918 139.788V137.472C241.918 136.342 241.684 135.419 241.215 134.702C240.747 133.985 239.865 133.627 238.569 133.627C237.549 133.627 236.562 133.839 235.608 134.264C234.66 134.694 233.731 135.295 232.821 136.066L231.043 133.42C232.201 132.538 233.461 131.876 234.823 131.435C236.19 130.994 237.59 130.774 239.024 130.774ZM241.918 143.882V142.641C241.202 142.641 240.402 142.669 239.52 142.724C238.638 142.779 237.783 142.936 236.956 143.195C236.129 143.46 235.446 143.868 234.905 144.419C234.37 144.971 234.103 145.729 234.103 146.693C234.103 147.548 234.406 148.174 235.013 148.571C235.619 148.973 236.35 149.175 237.204 149.175C238.142 149.175 238.96 148.913 239.661 148.389C240.366 147.865 240.918 147.195 241.315 146.379C241.717 145.569 241.918 144.736 241.918 143.882ZM251.677 120.271H256.019V139.747L263.421 131.27H267.349L259.699 139.912L268.465 151.821H264.082L256.019 140.78V151.821H252.215V122.627L251.677 120.271ZM278.464 130.774C280.173 130.774 281.601 131.124 282.748 131.824C283.889 132.53 284.749 133.494 285.328 134.718C285.907 135.948 286.196 137.348 286.196 138.92C286.196 139.306 286.177 139.705 286.139 140.119C286.094 140.532 286.031 140.973 285.948 141.442H272.964C272.964 143.951 273.538 145.894 274.684 147.272C275.826 148.651 277.334 149.34 279.208 149.34C280.008 149.34 280.848 149.216 281.731 148.968C282.613 148.72 283.522 148.334 284.46 147.81L285.742 150.043C284.804 150.815 283.702 151.394 282.434 151.78C281.165 152.166 279.925 152.358 278.712 152.358C276.562 152.358 274.764 151.862 273.32 150.87C271.87 149.877 270.786 148.568 270.07 146.942C269.353 145.315 268.995 143.592 268.995 141.773C268.995 140.367 269.196 139.016 269.598 137.72C269.995 136.425 270.594 135.245 271.393 134.181C272.192 133.122 273.179 132.29 274.354 131.683C275.522 131.077 276.893 130.774 278.464 130.774ZM278.174 133.544C277.237 133.544 276.418 133.798 275.718 134.305C275.013 134.818 274.453 135.474 274.039 136.273C273.626 137.073 273.35 137.886 273.212 138.713H282.268C282.323 137.638 282.185 136.714 281.855 135.942C281.524 135.17 281.05 134.578 280.432 134.164C279.809 133.751 279.057 133.544 278.174 133.544ZM299.222 131.394L303.316 130.939C303.509 131.38 303.666 131.84 303.787 132.32C303.914 132.805 304.005 133.282 304.06 133.751C304.859 133.006 305.783 132.323 306.83 131.7C307.878 131.082 308.981 130.774 310.138 130.774C311.406 130.774 312.509 131.035 313.446 131.559C314.384 132.083 315.128 132.938 315.679 134.123C316.534 133.268 317.518 132.496 318.632 131.807C319.751 131.118 320.931 130.774 322.171 130.774C323.688 130.774 324.892 131.091 325.785 131.725C326.684 132.359 327.332 133.213 327.729 134.288C328.131 135.363 328.333 136.618 328.333 138.051V151.821H324.57V138.961C324.57 138.161 324.506 137.381 324.379 136.62C324.258 135.865 323.963 135.239 323.495 134.743C323.026 134.247 322.295 133.999 321.303 133.999C320.393 133.999 319.484 134.294 318.574 134.884C317.664 135.479 316.906 136.08 316.3 136.687V151.821H312.537V138.961C312.537 138.161 312.473 137.381 312.346 136.62C312.225 135.865 311.936 135.239 311.478 134.743C311.026 134.247 310.29 133.999 309.27 133.999C308.719 133.999 308.131 134.137 307.508 134.412C306.891 134.688 306.307 135.033 305.755 135.446C305.204 135.86 304.721 136.259 304.308 136.645V151.821H300.545V136.935C300.545 136.383 300.495 135.769 300.396 135.091C300.302 134.418 300.159 133.751 299.966 133.089C299.773 132.428 299.525 131.862 299.222 131.394ZM342.02 130.774C344.197 130.774 345.851 131.358 346.982 132.527C348.112 133.701 348.677 135.377 348.677 137.555V147.562C348.677 148.196 348.787 148.623 349.008 148.844C349.228 149.064 349.504 149.175 349.835 149.175C350.083 149.175 350.345 149.139 350.621 149.067C350.896 149.001 351.158 148.913 351.406 148.802L352.15 151.159C351.682 151.435 351.103 151.678 350.414 151.887C349.725 152.091 349.022 152.193 348.305 152.193C347.533 152.193 346.858 151.992 346.279 151.589C345.7 151.192 345.328 150.456 345.162 149.381C344.363 150.291 343.431 150.999 342.367 151.507C341.308 152.019 340.173 152.276 338.96 152.276C337.333 152.276 335.974 151.799 334.883 150.845C333.796 149.897 333.253 148.582 333.253 146.9C333.253 145.329 333.625 144.075 334.37 143.137C335.114 142.2 336.084 141.489 337.281 141.004C338.483 140.524 339.759 140.201 341.11 140.036C342.461 139.871 343.729 139.788 344.914 139.788V137.472C344.914 136.342 344.68 135.419 344.211 134.702C343.743 133.985 342.86 133.627 341.565 133.627C340.545 133.627 339.558 133.839 338.604 134.264C337.656 134.694 336.727 135.295 335.817 136.066L334.039 133.42C335.197 132.538 336.457 131.876 337.818 131.435C339.186 130.994 340.586 130.774 342.02 130.774ZM344.914 143.882V142.641C344.197 142.641 343.398 142.669 342.516 142.724C341.634 142.779 340.779 142.936 339.952 143.195C339.125 143.46 338.441 143.868 337.901 144.419C337.366 144.971 337.099 145.729 337.099 146.693C337.099 147.548 337.402 148.174 338.009 148.571C338.615 148.973 339.346 149.175 340.2 149.175C341.137 149.175 341.956 148.913 342.656 148.389C343.362 147.865 343.913 147.195 344.31 146.379C344.713 145.569 344.914 144.736 344.914 143.882ZM357.642 125.357H360.371C360.178 126.321 360.007 127.306 359.858 128.309C359.704 129.318 359.599 130.305 359.544 131.27H364.837L364.134 133.999H359.544V146.776C359.544 147.272 359.599 147.719 359.709 148.116C359.82 148.518 360.026 148.835 360.33 149.067C360.633 149.304 361.074 149.423 361.653 149.423C362.094 149.423 362.535 149.381 362.976 149.299C363.417 149.216 363.844 149.119 364.258 149.009L364.837 151.49C364.148 151.683 363.467 151.862 362.794 152.028C362.116 152.193 361.377 152.276 360.578 152.276C358.813 152.276 357.573 151.813 356.856 150.886C356.139 149.966 355.781 148.651 355.781 146.942V133.999H352.638V131.807C353.741 131.78 354.623 131.413 355.285 130.707C355.946 130.007 356.456 129.161 356.815 128.168C357.173 127.176 357.449 126.239 357.642 125.357ZM368.269 120.271H372.487V133.585C373.369 132.813 374.32 132.144 375.34 131.576C376.36 131.013 377.476 130.732 378.689 130.732C380.205 130.732 381.418 131.041 382.328 131.658C383.238 132.281 383.894 133.136 384.296 134.222C384.693 135.314 384.892 136.576 384.892 138.01V151.821H381.17V139.002C381.17 138.203 381.11 137.417 380.988 136.645C380.862 135.873 380.578 135.231 380.136 134.718C379.695 134.211 378.951 133.958 377.904 133.958C377.27 133.958 376.63 134.095 375.985 134.371C375.334 134.647 374.714 134.983 374.124 135.38C373.529 135.782 372.983 136.19 372.487 136.604V151.821H368.765V122.627L368.269 120.271ZM408.751 130.774C410.46 130.774 411.885 131.124 413.027 131.824C414.173 132.53 415.036 133.494 415.615 134.718C416.194 135.948 416.484 137.348 416.484 138.92C416.484 139.306 416.462 139.705 416.417 140.119C416.379 140.532 416.318 140.973 416.235 141.442H403.251C403.251 143.951 403.822 145.894 404.963 147.272C406.11 148.651 407.621 149.34 409.495 149.34C410.295 149.34 411.136 149.216 412.018 148.968C412.9 148.72 413.81 148.334 414.747 147.81L416.029 150.043C415.091 150.815 413.989 151.394 412.721 151.78C411.453 152.166 410.212 152.358 408.999 152.358C406.849 152.358 405.049 151.862 403.599 150.87C402.154 149.877 401.074 148.568 400.357 146.942C399.64 145.315 399.282 143.592 399.282 141.773C399.282 140.367 399.48 139.016 399.877 137.72C400.28 136.425 400.881 135.245 401.68 134.181C402.48 133.122 403.464 132.29 404.633 131.683C405.807 131.077 407.18 130.774 408.751 130.774ZM408.462 133.544C407.524 133.544 406.703 133.798 405.997 134.305C405.297 134.818 404.74 135.474 404.327 136.273C403.913 137.073 403.637 137.886 403.5 138.713H412.555C412.61 137.638 412.473 136.714 412.142 135.942C411.811 135.17 411.334 134.578 410.711 134.164C410.094 133.751 409.344 133.544 408.462 133.544ZM428.508 130.774C430.686 130.774 432.34 131.358 433.47 132.527C434.601 133.701 435.166 135.377 435.166 137.555V147.562C435.166 148.196 435.276 148.623 435.497 148.844C435.717 149.064 435.993 149.175 436.324 149.175C436.572 149.175 436.834 149.139 437.109 149.067C437.385 149.001 437.647 148.913 437.895 148.802L438.639 151.159C438.171 151.435 437.592 151.678 436.902 151.887C436.213 152.091 435.51 152.193 434.794 152.193C434.022 152.193 433.346 151.992 432.767 151.589C432.189 151.192 431.816 150.456 431.651 149.381C430.851 150.291 429.922 150.999 428.864 151.507C427.8 152.019 426.661 152.276 425.448 152.276C423.822 152.276 422.466 151.799 421.379 150.845C420.288 149.897 419.742 148.582 419.742 146.9C419.742 145.329 420.114 144.075 420.858 143.137C421.603 142.2 422.576 141.489 423.778 141.004C424.974 140.524 426.248 140.201 427.599 140.036C428.949 139.871 430.217 139.788 431.403 139.788V137.472C431.403 136.342 431.169 135.419 430.7 134.702C430.231 133.985 429.349 133.627 428.053 133.627C427.033 133.627 426.049 133.839 425.101 134.264C424.147 134.694 423.215 135.295 422.306 136.066L420.528 133.42C421.685 132.538 422.948 131.876 424.315 131.435C425.677 130.994 427.075 130.774 428.508 130.774ZM431.403 143.882V142.641C430.686 142.641 429.887 142.669 429.004 142.724C428.122 142.779 427.268 142.936 426.441 143.195C425.614 143.46 424.933 143.868 424.398 144.419C423.858 144.971 423.588 145.729 423.588 146.693C423.588 147.548 423.891 148.174 424.497 148.571C425.104 148.973 425.834 149.175 426.689 149.175C427.626 149.175 428.448 148.913 429.153 148.389C429.854 147.865 430.405 147.195 430.807 146.379C431.204 145.569 431.403 144.736 431.403 143.882ZM448.522 130.774C449.459 130.774 450.41 130.884 451.375 131.104C452.34 131.325 453.222 131.683 454.022 132.179L452.698 134.991C452.119 134.523 451.458 134.164 450.714 133.916C449.969 133.668 449.239 133.544 448.522 133.544C447.557 133.544 446.716 133.756 446 134.181C445.283 134.611 444.924 135.281 444.924 136.19C444.924 137.155 445.241 137.872 445.876 138.341C446.51 138.809 447.281 139.25 448.191 139.664C448.88 139.995 449.578 140.325 450.283 140.656C450.984 140.987 451.637 141.387 452.243 141.855C452.85 142.324 453.341 142.903 453.716 143.592C454.085 144.281 454.27 145.136 454.27 146.156C454.27 147.562 453.92 148.725 453.219 149.646C452.514 150.572 451.604 151.256 450.49 151.697C449.371 152.138 448.177 152.358 446.909 152.358C445.807 152.358 444.685 152.207 443.543 151.904C442.397 151.6 441.355 151.173 440.417 150.622L441.947 147.934C442.609 148.403 443.348 148.794 444.164 149.108C444.974 149.428 445.779 149.588 446.578 149.588C447.571 149.588 448.448 149.345 449.208 148.86C449.964 148.381 450.341 147.645 450.341 146.652C450.341 145.991 450.135 145.439 449.721 144.998C449.308 144.557 448.784 144.163 448.15 143.815C447.516 143.474 446.854 143.151 446.165 142.848C445.338 142.462 444.525 142.035 443.725 141.566C442.926 141.097 442.273 140.491 441.765 139.747C441.253 139.002 440.996 138.037 440.996 136.852C440.996 135.501 441.363 134.377 442.096 133.478C442.824 132.585 443.761 131.909 444.908 131.452C446.049 131 447.254 130.774 448.522 130.774ZM456.627 131.27H460.679C461.313 133.006 461.933 134.749 462.54 136.496C463.146 138.25 463.753 140.036 464.359 141.855C464.635 142.71 464.902 143.57 465.161 144.436C465.426 145.307 465.696 146.156 465.972 146.983C466.22 146.128 466.482 145.274 466.758 144.419C467.033 143.565 467.295 142.71 467.543 141.855C468.15 140.036 468.762 138.25 469.379 136.496C470.002 134.749 470.617 133.006 471.223 131.27H474.738L467.46 151.904C467.13 152.786 466.722 153.751 466.236 154.798C465.757 155.846 465.192 156.824 464.541 157.734C463.896 158.644 463.138 159.388 462.267 159.967C461.401 160.546 460.403 160.835 459.273 160.835H457.743V157.899C457.826 157.899 457.914 157.908 458.008 157.924C458.107 157.935 458.212 157.941 458.322 157.941C459.452 157.941 460.39 157.604 461.134 156.932C461.878 156.254 462.485 155.432 462.953 154.467C463.422 153.503 463.822 152.579 464.152 151.697L456.627 131.27Z" fill="white"/>
</g>
</g>
</g>
</g>
<g clip-path="url(#clip9_1_72)">
<g clip-path="url(#clip10_1_72)">
<path d="M584.172 26.5532V40.6508H557.939V66.8839H543.833V40.6508H517.608V26.5532H543.833V0.322754H557.939V26.5532H584.172Z" fill="white"/>
<path d="M641.449 25.6479H689.373V43.4331H641.449V25.6479Z" fill="white"/>
<path d="M540.269 149.864L517.893 127.348L528.591 116.65L550.961 139.167L573.483 116.65L584.175 127.348L561.52 149.864L584.175 172.381L573.483 183.078L550.961 160.421L528.309 183.078L517.611 172.381L540.269 149.864Z" fill="white"/>
<path d="M698.692 141.105V155.203H632.131V141.105H698.692ZM657.634 112.833C659.876 110.681 662.488 109.603 665.475 109.603C666.972 109.603 668.377 109.888 669.695 110.46C671.013 111.035 672.179 111.824 673.186 112.833C674.195 113.847 675.01 115.032 675.627 116.392C676.24 117.755 676.551 119.222 676.551 120.807C676.551 122.212 676.24 123.576 675.627 124.893C675.012 126.214 674.216 127.396 673.252 128.448C672.286 129.505 671.144 130.341 669.826 130.951C668.511 131.568 667.102 131.874 665.611 131.874C664.03 131.874 662.555 131.59 661.197 131.022C659.828 130.45 658.644 129.659 657.637 128.648C656.628 127.638 655.813 126.454 655.196 125.09C654.583 123.73 654.272 122.303 654.272 120.807C654.269 117.641 655.39 114.986 657.634 112.833ZM655.193 171.156C655.808 169.836 656.625 168.672 657.634 167.666C658.641 166.657 659.828 165.863 661.194 165.288C662.552 164.721 663.982 164.436 665.473 164.436C666.969 164.436 668.375 164.721 669.693 165.288C671.011 165.863 672.177 166.657 673.183 167.666C674.192 168.672 675.007 169.836 675.625 171.156C676.237 172.477 676.548 173.925 676.548 175.507C676.548 176.827 676.237 178.145 675.625 179.458C675.01 180.778 674.213 181.963 673.25 183.02C672.283 184.074 671.141 184.929 669.823 185.589C668.508 186.25 667.099 186.577 665.608 186.577C664.027 186.577 662.552 186.271 661.194 185.653C659.826 185.043 658.641 184.226 657.634 183.217C656.625 182.205 655.811 181.018 655.193 179.657C654.581 178.294 654.269 176.912 654.269 175.507C654.269 173.922 654.581 172.474 655.193 171.156Z" fill="white"/>
</g>
</g>
</g>
</g>
</g>
<defs>
<clipPath id="clip0_1_72">
<rect width="700" height="186.9" fill="white"/>
</clipPath>
<clipPath id="clip1_1_72">
<rect width="697.384" height="186.254" fill="white" transform="translate(1.30811 0.322754)"/>
</clipPath>
<clipPath id="clip2_1_72">
<rect width="697.384" height="186.254" fill="white" transform="translate(1.30811 0.322754)"/>
</clipPath>
<clipPath id="clip3_1_72">
<rect width="473.442" height="134.771" fill="white" transform="translate(1.30811 26.064)"/>
</clipPath>
<clipPath id="clip4_1_72">
<rect width="473.442" height="134.771" fill="white" transform="translate(1.30811 26.064)"/>
</clipPath>
<clipPath id="clip5_1_72">
<rect width="473.442" height="76.2142" fill="white" transform="translate(1.30811 26.064)"/>
</clipPath>
<clipPath id="clip6_1_72">
<rect width="473.442" height="76.2142" fill="white" transform="translate(1.30811 26.064)"/>
</clipPath>
<clipPath id="clip7_1_72">
<rect width="277.958" height="40.5648" fill="white" transform="translate(196.792 120.271)"/>
</clipPath>
<clipPath id="clip8_1_72">
<rect width="277.958" height="40.5648" fill="white" transform="translate(196.792 120.271)"/>
</clipPath>
<clipPath id="clip9_1_72">
<rect width="181.084" height="186.254" fill="white" transform="translate(517.608 0.322754)"/>
</clipPath>
<clipPath id="clip10_1_72">
<rect width="181.084" height="186.254" fill="white" transform="translate(517.608 0.322754)"/>
</clipPath>
</defs>
</svg>
